<svg data-v-423bf9ae="" xmlns="http://www.w3.org/2000/svg" viewBox="0 0 232 90" class="iconLeft"><!----><!----><!----><g data-v-423bf9ae="" id="5602b2fb-904a-487b-a4f8-02300ee88a3b" fill="#000000" transform="matrix(4.376367907125053,0,0,4.376367907125053,84.52256564184707,1.4770233041916754)"><path d="M1.04 16.80L3.46 16.80L3.46 13.08C3.99 13.78 4.79 14.17 5.77 14.17C7.88 14.17 9.25 12.64 9.25 10.35C9.25 8.01 7.84 6.45 5.71 6.45C4.76 6.45 3.99 6.85 3.46 7.53L3.46 6.54L1.04 6.54ZM3.46 10.28C3.46 9.13 4.14 8.32 5.12 8.32C6.13 8.32 6.82 9.13 6.82 10.28C6.82 11.44 6.13 12.25 5.12 12.25C4.14 12.25 3.46 11.45 3.46 10.28ZM10.50 4.37C10.50 5.12 11.03 5.66 11.77 5.66C12.52 5.66 13.05 5.12 13.05 4.37C13.05 3.63 12.52 3.09 11.77 3.09C11.03 3.09 10.50 3.63 10.50 4.37ZM10.56 14.08L12.96 14.08L12.96 6.54L10.56 6.54ZM14.91 14.08L17.33 14.08L17.33 10.09C17.43 9.20 17.99 8.57 18.87 8.57C19.68 8.57 20.20 9.11 20.20 10.00L20.20 14.08L22.61 14.08L22.61 9.32C22.61 7.56 21.52 6.43 19.85 6.43C18.73 6.44 17.86 6.89 17.33 7.77L17.33 6.54L14.91 6.54ZM24.28 4.37C24.28 5.12 24.81 5.66 25.55 5.66C26.29 5.66 26.82 5.12 26.82 4.37C26.82 3.63 26.29 3.09 25.55 3.09C24.81 3.09 24.28 3.63 24.28 4.37ZM24.33 14.08L26.74 14.08L26.74 6.54L24.33 6.54ZM27.99 8.47L29.04 8.47L29.04 11.80C29.04 13.37 30.09 14.20 31.54 14.20C32.27 14.20 33.01 14 33.56 13.68L33.08 12.00C32.72 12.15 32.40 12.25 32.14 12.25C31.70 12.26 31.44 12.01 31.44 11.42L31.44 8.47L33.42 8.47L33.42 6.87L31.44 6.87L31.44 4.79L29.04 4.79L29.04 6.89L27.99 6.89Z"></path></g><defs data-v-423bf9ae=""><linearGradient data-v-423bf9ae="" gradientTransform="rotate(25)" id="50851ff1-f6d6-47ce-a475-091f8ed24c01" x1="0%" y1="0%" x2="100%" y2="0%"><stop data-v-423bf9ae="" offset="0%" style="stop-color: rgb(75, 39, 155); stop-opacity: 1;"></stop><stop data-v-423bf9ae="" offset="100%" style="stop-color: rgb(223, 153, 216); stop-opacity: 1;"></stop></linearGradient></defs><g data-v-423bf9ae="" id="38c4381b-2204-4642-98a8-21d5b3a4d0ff" transform="matrix(3.934942660284598,0,0,3.934942660284598,-161.52118891511012,-151.18313752881474)" stroke="none" fill="url(#50851ff1-f6d6-47ce-a475-091f8ed24c01)"><path d="M50 61.436c-.466 0-.901-.225-1.171-.604l-5.851-8.239a4.533 4.533 0 0 1-.085-.118l-.214-.302a1.444 1.444 0 0 1-.119-.2c-.066-.1-.133-.199-.193-.305a8.795 8.795 0 0 1-1.145-4.325c0-4.841 3.938-8.779 8.777-8.779s8.777 3.938 8.777 8.779a8.72 8.72 0 0 1-1.35 4.669 1.31 1.31 0 0 1-.1.162l-.191.267-5.967 8.392a1.43 1.43 0 0 1-1.168.603zm-4.857-10.755l.102.143c.02.024.058.081.076.106l4.681 6.592 4.919-6.917.031-.051a5.857 5.857 0 0 0 .955-3.211 5.913 5.913 0 0 0-5.906-5.907 5.912 5.912 0 0 0-5.904 5.907 5.9 5.9 0 0 0 .767 2.902c.032.055.074.114.114.174l.084.123c.028.045.055.091.081.139z"></path></g><!----></svg>